<?xml version="1.0" encoding="utf-8"?>
<!-- Generator: Adobe Illustrator 19.2.1, SVG Export Plug-In . SVG Version: 6.00 Build 0)  -->
<svg version="1.1" id="layer" xmlns="http://www.w3.org/2000/svg" xmlns:xlink="http://www.w3.org/1999/xlink" x="0px" y="0px"
	 viewBox="0 0 652 652" style="enable-background:new 0 0 652 652;" xml:space="preserve">
<style type="text/css">
	.st0{fill:#DDAD7F;}
</style>
<g>
	<path class="st0" d="M251.6,456.4c-6.6-17.3-32.2-37.6-32.2-37.6c-19.7-17.3-32.8-41.2-35.8-52.5l-7.8-2.4v131.2h11.9v-88.9
		c6,17.3,35.2,40,35.2,40s22.7,19.1,33.4,45.3l7.2,3.6V365.7h-11.9V456.4z"/>
	<path class="st0" d="M131.7,367.5c-20.3,32.2-35.8,40.6-58.5,63.2c-19.1,19.1-33.4,40.6-26.3,64.4h22.1
		c-4.8-11.9-1.2-25.1,1.8-29.8h54.3v29.8h13.7V363.3C138.9,363.3,134.7,362.7,131.7,367.5 M125.2,456.4H75.1
		c7.8-20.9,37.6-33.4,50.1-56.7V456.4z"/>
	<path class="st0" d="M15.4,477.9l11.3-92.5c3-12.5,4.8-19.1,20.9-32.2C36.3,352,30.9,358.6,22,358h-70.4
		c-14.3-1.2-17.9,11.3-15.5,16.1c1.8-4.2,4.2-4.2,8.4-4.8h66.8c0,0-8.4,9.5-10.1,22.7c0,0-7.2,79.9-6,105
		c1.2,50.1,38.8,77.6,56.1,75.2C23.2,546.5,12.4,515.4,15.4,477.9"/>
	<path class="st0" d="M434.7,120.6"/>
	<path class="st0" d="M394.2,295.9c4.2,1.8,7.2,0.6,1.8-3.6c-31.6-20.3-50.1-68.6-51.9-109.8v-82.3c6.6,4.2,19.1,4.8,19.1,4.8h47.7
		c12.5,0,19.1,4.2,23.9,15.5c4.2-19.7-8.4-37.6-28-37.6H353c-13.7,0.6-32.2-10.7-32.2-10.7v90.1
		C320.8,253.6,370.9,292.4,394.2,295.9"/>
	<path class="st0" d="M308.3,72.2c0,0-17.9,11.3-32.2,10.7h-53.7c-19.1,0-32.2,17.9-28,37.6c5.4-11.3,11.9-15.5,24.4-15.5h47.1
		c0,0,12.5-0.6,19.1-4.8v82.3c-1.8,41.1-20.3,89.5-51.9,109.7c-5.4,4.2-2.4,5.4,1.8,3.6c23.3-3.6,73.4-42.3,73.4-133.6V72.2z"/>
	<rect x="305.9" y="365.7" class="st0" width="16.7" height="129.4"/>
	<path class="st0" d="M648.9,349.6"/>
	<path class="st0" d="M693.6,465.9c10.7-14.9,17.3-40,3.6-64.4c-12.5-23.3-47.7-44.7-48.3-51.9c-17.3,13.7-31.6,25.6-39.4,43.5
		c-8.4,17.9-10.7,43.5,0,65.6c11.9,24.5,25.7,37.6,41.8,53.7c11.3,12.5,32.8,37.6,25.7,59.7c5.4,0,12.5-13.1,13.7-17.9
		c3-15.5,1.2-23.3-5.4-34.6c-4.2-7.7-13.1-15.5-19.7-23.2C675.1,488.6,685.3,477.3,693.6,465.9 M656,487.4L656,487.4
		c-13.7-11.3-22.1-20.9-30.4-39.4c-8.4-16.7-8.9-36.4-5.4-50.1c4.2-14.9,14.3-25.6,23.9-33.4c10.7,7.8,22.1,17.3,30.4,31
		c13.7,23.3,13.7,40,4.8,62.6C673.9,471.3,668,479,656,487.4"/>
	<polygon class="st0" points="553.5,446.2 506.3,446.2 506.3,365.7 489,365.7 489,491.6 506.3,491.6 506.3,456.4 553.5,456.4 
		553.5,493.4 571.4,493.4 571.4,365.7 553.5,365.7 	"/>
	<path class="st0" d="M431.2,423.6c-17.3-8.9-32.2-14.9-45.9-25.6c-7.2-6-7.2-16.7-0.6-21.5c7.2-5.4,19.1-4.8,27.4-0.6
		c7.8,4.8,10.1,10.1,16.1,15.5c4.2,3.6,8.4,5.4,12.5,4.2c-1.8-8.4-7.2-16.1-14.3-22.7c-16.7-14.3-45.3-10.7-56.1,0.6
		c-12.5,13.7-8.4,26.8,3.6,38.8c13.7,13.7,38.2,19.1,57.8,37.6c9.5,8.9,11.3,22.7-1.8,31c-8.9,5.4-24.4,7.2-38.2,1.8
		c-9.5-4.2-13.7-7.7-20.3-16.7c-4.2-6.5-7.7-11.3-18.5-11.3c1.8,16.1,14.3,29.2,30.4,35.8c20.9,7.8,44.2,6.6,62.6-6
		C468.2,469.5,462.8,440.3,431.2,423.6"/>
	<path class="st0" d="M314.8,310.8c-9.5,0-16.7,7.2-16.7,16.7c0,8.9,7.2,16.7,16.7,16.7c8.4,0,16.1-7.8,16.1-16.7
		C331,318,323.2,310.8,314.8,310.8"/>
</g>
</svg>
